HIERARCHY
ROOT Hips
{
  OFFSET 0.0 0.0 0.0
  CHANNELS 6 Xposition Yposition Zposition Zrotation Yrotation Xrotation
  JOINT LHipJoint
  {
    OFFSET 0.0 0.0 0.0
    CHANNELS 3 Zrotation Yrotation Xrotation
    JOINT LeftUpLeg
    {
      OFFSET 1.363059998 -1.794630051 0.839290023
      CHANNELS 3 Zrotation Yrotation Xrotation
      JOINT LeftLeg
      {
        OFFSET 2.448110104 -6.726130009 0.0
        CHANNELS 3 Zrotation Yrotation Xrotation
        JOINT LeftFoot
        {
          OFFSET 2.562200069 -7.039589882 0.0
          CHANNELS 3 Zrotation Yrotation Xrotation
          JOINT LeftToeBase
          {
            OFFSET 0.157639995 -0.433109999 2.322550058
            CHANNELS 3 Zrotation Yrotation Xrotation
            End Site
            {
              OFFSET 0.0 -0.0 1.189659953
            }
          }
        }
      }
    }
  }
  JOINT RHipJoint
  {
    OFFSET 0.0 0.0 0.0
    CHANNELS 3 Zrotation Yrotation Xrotation
    JOINT RightUpLeg
    {
      OFFSET -1.305520058 -1.794630051 0.839290023
      CHANNELS 3 Zrotation Yrotation Xrotation
      JOINT RightLeg
      {
        OFFSET -2.54253006 -6.985549927 0.0
        CHANNELS 3 Zrotation Yrotation Xrotation
        JOINT RightFoot
        {
          OFFSET -2.568259954 -7.056230068 0.0
          CHANNELS 3 Zrotation Yrotation Xrotation
          JOINT RightToeBase
          {
            OFFSET -0.164729998 -0.452589989 2.363149881
            CHANNELS 3 Zrotation Yrotation Xrotation
            End Site
            {
              OFFSET -0.0 -0.0 1.21081996
            }
          }
        }
      }
    }
  }
  JOINT LowerBack
  {
    OFFSET 0.0 0.0 0.0
    CHANNELS 3 Zrotation Yrotation Xrotation
    JOINT Spine
    {
      OFFSET 0.028270001 2.035589933 -0.193379998
      CHANNELS 3 Zrotation Yrotation Xrotation
      JOINT Spine1
      {
        OFFSET 0.05672 2.04885006 -0.042750001
        CHANNELS 3 Zrotation Yrotation Xrotation
        JOINT Neck
        {
          OFFSET 0.0 0.0 0.0
          CHANNELS 3 Zrotation Yrotation Xrotation
          JOINT Neck1
          {
            OFFSET -0.054170001 1.74624002 0.172020003
            CHANNELS 3 Zrotation Yrotation Xrotation
            JOINT Head
            {
              OFFSET 0.10407 1.761360049 -0.123970002
              CHANNELS 3 Zrotation Yrotation Xrotation
              End Site
              {
                OFFSET 0.0372 1.770439982 -0.062410001
              }
            }
          }
        }
        JOINT LeftShoulder
        {
          OFFSET 0.0 0.0 0.0
          CHANNELS 3 Zrotation Yrotation Xrotation
          JOINT LeftArm
          {
            OFFSET 3.362410069 1.200889945 -0.311210006
            CHANNELS 3 Zrotation Yrotation Xrotation
            JOINT LeftForeArm
            {
              OFFSET 4.982999802 -0.0 -0.0
              CHANNELS 3 Zrotation Yrotation Xrotation
              JOINT LeftHand
              {
                OFFSET 3.483560085 -0.0 -0.0
                CHANNELS 3 Zrotation Yrotation Xrotation
                JOINT LeftFingerBase
                {
                  OFFSET 0.0 0.0 0.0
                  CHANNELS 3 Zrotation Yrotation Xrotation
                  JOINT LeftHandIndex1
                  {
                    OFFSET 0.715260029 -0.0 -0.0
                    CHANNELS 3 Zrotation Yrotation Xrotation
                    End Site
                    {
                      OFFSET 0.576659977 -0.0 -0.0
                    }
                  }
                }
                JOINT LThumb
                {
                  OFFSET 0.0 0.0 0.0
                  CHANNELS 3 Zrotation Yrotation Xrotation
                  End Site
                  {
                    OFFSET 0.585470021 -0.0 0.585470021
                  }
                }
              }
            }
          }
        }
        JOINT RightShoulder
        {
          OFFSET 0.0 0.0 0.0
          CHANNELS 3 Zrotation Yrotation Xrotation
          JOINT RightArm
          {
            OFFSET -3.136600018 1.374050021 -0.404650003
            CHANNELS 3 Zrotation Yrotation Xrotation
            JOINT RightForeArm
            {
              OFFSET -5.241899967 -0.0 -0.0
              CHANNELS 3 Zrotation Yrotation Xrotation
              JOINT RightHand
              {
                OFFSET -3.444169998 -0.0 -0.0
                CHANNELS 3 Zrotation Yrotation Xrotation
                JOINT RightFingerBase
                {
                  OFFSET 0.0 0.0 0.0
                  CHANNELS 3 Zrotation Yrotation Xrotation
                  JOINT RightHandIndex1
                  {
                    OFFSET -0.622529984 -0.0 -0.0
                    CHANNELS 3 Zrotation Yrotation Xrotation
                    End Site
                    {
                      OFFSET -0.501900017 -0.0 -0.0
                    }
                  }
                }
                JOINT RThumb
                {
                  OFFSET 0.0 0.0 0.0
                  CHANNELS 3 Zrotation Yrotation Xrotation
                  End Site
                  {
                    OFFSET -0.509559989 -0.0 0.509559989
                  }
                }
              }
            }
          }
        }
      }
    }
  }
}
MOTION
Frames: 4
Frame Time: 0.0083333
14.546675682 18.451099396 48.610542297 179.828903198 10.320988655 175.041976929 0.0 -0.0 0.0 -21.494697571 12.485798836 3.604800463 0.678299904 5.266200542 14.669498444 0.169499978 -1.446699858 -7.403000355 0.008000001 -0.575900078 -1.582400203 0.0 -0.0 0.0 18.045698166 22.083301544 -53.026203156 -20.584283829 -19.991792679 91.708511353 -2.943399906 3.928999662 -31.572200775 -0.407000035 -4.095699787 11.345999718 -7.654399395 10.136699677 15.881402016 5.070200443 14.2312994 10.181499481 6.941198826 7.492297649 -0.730700135 10.390501976 -9.914502144 9.897999763 -4.723801613 -16.052404404 23.364603043 -3.242899895 -8.406900406 4.512898922 0.0 -0.0 0.0 -135.59715271 -76.730522156 95.801849365 23.030502319 -34.12210083 -7.155402184 0.0 -0.0 18.94319725 21.724399567 -16.290397644 -6.377200603 -7.125 0.0 0.0 -4.022602081 12.549502373 3.060200214 0.0 -0.0 0.0 75.14490509 2.08509922 2.615600586 -50.237102509 53.090694427 -26.363605499 0.0 0.0 -5.602900505 -36.086399078 -20.682197571 14.435600281 7.125 -0.0 0.0 -8.158701897 -54.833698273 1.980400562 
14.597776413 18.390199661 48.678943634 179.623199463 10.22000885 174.977005005 0.0 -0.0 0.0 -21.842596054 12.077799797 3.0 0.790000081 5.673699856 15.840396881 0.224400029 -1.713499784 -8.514300346 0.0026 -0.330499977 -0.90809983 0.0 -0.0 0.0 17.572301865 22.167491913 -53.672393799 -20.758699417 -19.986198425 92.218803406 -2.933699846 3.472999334 -31.607097626 -0.24970004 -3.215099812 8.878299713 -7.879498482 10.095098495 15.693799019 5.019498825 14.170398712 10.254301071 7.066298962 7.450897217 -0.57580024 10.49270153 -9.836799622 9.714898109 -4.976801395 -15.886203766 23.399007797 -3.349099874 -8.324999809 4.526599884 0.0 -0.0 0.0 -137.874221802 -77.212181091 98.437644958 22.428703308 -33.458099365 -6.820703506 0.0 -0.0 19.435800552 23.035301208 -15.998699188 -6.684100628 -7.125 0.0 0.0 -3.127699852 12.694000244 2.367600203 0.0 -0.0 0.0 76.197799683 1.456800222 2.079299688 -49.435405731 52.765197754 -25.724014282 0.0 0.0 -5.851500034 -36.116401672 -20.702703476 14.463900566 7.125 -0.0 0.0 -8.191298485 -54.864898682 1.994597793 
14.6528759 18.327299118 48.74514389 179.214996338 10.098994255 174.83001709 0.0 -0.0 0.0 -22.346403122 11.861599922 2.4556005 0.892700016 6.022200584 16.848899841 0.275200099 -2.02670002 -9.412399292 0.004700001 -0.443200082 -1.217800021 0.0 -0.0 0.0 16.881900787 22.099300385 -54.403400421 -20.96500206 -19.977695465 92.822601318 -2.943500519 3.454601049 -31.665512085 -0.15609996 -2.545599699 7.015999317 -8.405202866 10.044500351 15.483803749 4.951101303 14.07000351 10.367604256 7.34829998 7.379900932 -0.410299867 10.332596779 -9.816200256 10.010298729 -4.938799858 -15.751898766 22.972198486 -3.272000551 -8.270800591 4.36730051 0.0 -0.0 0.0 -140.01272583 -77.715003967 100.774719238 21.833898544 -32.788799286 -6.495600224 0.0 -0.0 19.932304382 24.191003799 -15.641798973 -6.906201363 -7.125 0.0 0.0 -2.328300238 12.926598549 1.749999881 0.0 -0.0 0.0 77.242111206 0.55309993 1.782300353 -49.023113251 52.59380722 -25.396102905 0.0 0.0 -6.606200218 -36.982795715 -20.966197968 15.081098557 7.125 -0.0 0.0 -9.160099983 -55.372306824 2.346699238 
14.694775581 18.283100128 48.812042236 179.107803345 10.005996704 174.810012817 0.0 -0.0 0.0 -22.494699478 11.782501221 1.952499866 0.95410037 6.22010088 17.42440033 0.319999963 -2.540999413 -10.109297752 0.0009 -0.191999987 -0.527599931 0.0 -0.0 0.0 16.425102234 22.651809692 -54.971912384 -21.130304337 -19.969295502 93.306388855 -2.931999922 3.355999708 -31.621101379 -0.151899979 -2.511599302 6.92169857 -8.594301224 9.962098122 15.372900009 4.917199135 13.94839859 10.394298553 7.466998577 7.309400558 -0.328800023 10.007300377 -9.807801247 10.513399124 -4.700600624 -15.65779686 22.426204681 -3.092799902 -8.242599487 4.168599606 0.0 -0.0 0.0 -142.140808105 -78.348625183 103.500030518 21.163999557 -32.019195557 -6.13659668 0.0 -0.0 19.964500427 25.269197464 -15.164302826 -7.039200783 -7.125 0.0 0.0 -1.567600012 13.30079937 1.165400147 0.0 -0.0 0.0 78.275596619 -0.18520005 1.575699925 -48.315784454 52.293193817 -24.835292816 0.0 0.0 -7.288199425 -37.48059845 -21.048301697 15.397296906 7.125 -0.0 0.0 -9.728302956 -55.585800171 2.544802189 
